<mxfile host="Electron" modified="2024-04-16T13:13:40.387Z" agent="Mozilla/5.0 (Windows NT 10.0; Win64; x64) AppleWebKit/537.36 (KHTML, like Gecko) draw.io/24.2.5 Chrome/120.0.6099.109 Electron/28.1.0 Safari/537.36" etag="BL87figDgM8Hi9wsPL6l" version="24.2.5" type="device">
  <diagram name="Seite-1" id="8W7xydZLSa2Hy__Mao22">
    <mxGraphModel dx="1418" dy="948" grid="1" gridSize="10" guides="1" tooltips="1" connect="1" arrows="1" fold="1" page="1" pageScale="1" pageWidth="1169" pageHeight="827" math="0" shadow="0">
      <root>
        <mxCell id="0" />
        <mxCell id="1" parent="0" />
        <mxCell id="A1K1ccTUi93D_iNqFism-1" value="Frau Meier : Kunde" style="rounded=0;whiteSpace=wrap;html=1;" parent="1" vertex="1">
          <mxGeometry x="40" y="40" width="160" height="60" as="geometry" />
        </mxCell>
        <mxCell id="A1K1ccTUi93D_iNqFism-3" value=": Homepage" style="rounded=0;whiteSpace=wrap;html=1;" parent="1" vertex="1">
          <mxGeometry x="280" y="40" width="160" height="60" as="geometry" />
        </mxCell>
        <mxCell id="A1K1ccTUi93D_iNqFism-5" value=": VorführungPlatzBuchung" style="rounded=0;whiteSpace=wrap;html=1;" parent="1" vertex="1">
          <mxGeometry x="880" y="40" width="160" height="60" as="geometry" />
        </mxCell>
        <mxCell id="A1K1ccTUi93D_iNqFism-6" value="" style="endArrow=none;dashed=1;html=1;dashPattern=1 3;strokeWidth=2;rounded=0;" parent="1" target="A1K1ccTUi93D_iNqFism-1" edge="1">
          <mxGeometry width="50" height="50" relative="1" as="geometry">
            <mxPoint x="120" y="1480" as="sourcePoint" />
            <mxPoint x="120" y="100" as="targetPoint" />
          </mxGeometry>
        </mxCell>
        <mxCell id="A1K1ccTUi93D_iNqFism-7" value="" style="endArrow=none;dashed=1;html=1;dashPattern=1 3;strokeWidth=2;rounded=0;entryX=0.563;entryY=1;entryDx=0;entryDy=0;entryPerimeter=0;" parent="1" target="A1K1ccTUi93D_iNqFism-3" edge="1">
          <mxGeometry width="50" height="50" relative="1" as="geometry">
            <mxPoint x="375" y="1480" as="sourcePoint" />
            <mxPoint x="370" y="120" as="targetPoint" />
          </mxGeometry>
        </mxCell>
        <mxCell id="A1K1ccTUi93D_iNqFism-9" value="" style="endArrow=none;dashed=1;html=1;dashPattern=1 3;strokeWidth=2;rounded=0;" parent="1" source="A1K1ccTUi93D_iNqFism-120" target="A1K1ccTUi93D_iNqFism-5" edge="1">
          <mxGeometry width="50" height="50" relative="1" as="geometry">
            <mxPoint x="960" y="1480" as="sourcePoint" />
            <mxPoint x="959.5" y="100" as="targetPoint" />
          </mxGeometry>
        </mxCell>
        <mxCell id="A1K1ccTUi93D_iNqFism-10" value="" style="endArrow=classic;html=1;rounded=0;" parent="1" source="A1K1ccTUi93D_iNqFism-101" edge="1">
          <mxGeometry width="50" height="50" relative="1" as="geometry">
            <mxPoint x="120" y="140" as="sourcePoint" />
            <mxPoint x="370" y="140" as="targetPoint" />
          </mxGeometry>
        </mxCell>
        <mxCell id="A1K1ccTUi93D_iNqFism-13" value="" style="endArrow=classic;html=1;rounded=0;" parent="1" edge="1">
          <mxGeometry width="50" height="50" relative="1" as="geometry">
            <mxPoint x="120" y="220" as="sourcePoint" />
            <mxPoint x="370" y="220" as="targetPoint" />
          </mxGeometry>
        </mxCell>
        <mxCell id="A1K1ccTUi93D_iNqFism-14" value="führeLoginDurch()" style="edgeLabel;html=1;align=center;verticalAlign=middle;resizable=0;points=[];" parent="A1K1ccTUi93D_iNqFism-13" vertex="1" connectable="0">
          <mxGeometry x="-0.1312" y="-3" relative="1" as="geometry">
            <mxPoint y="-3" as="offset" />
          </mxGeometry>
        </mxCell>
        <mxCell id="A1K1ccTUi93D_iNqFism-15" value="login Erfolgreich" style="html=1;verticalAlign=bottom;endArrow=open;dashed=1;endSize=8;curved=0;rounded=0;" parent="1" target="A1K1ccTUi93D_iNqFism-101" edge="1">
          <mxGeometry relative="1" as="geometry">
            <mxPoint x="370" y="260" as="sourcePoint" />
            <mxPoint x="120" y="260" as="targetPoint" />
          </mxGeometry>
        </mxCell>
        <mxCell id="A1K1ccTUi93D_iNqFism-17" value="re12: ReservierungsEinheit&amp;nbsp;" style="rounded=0;whiteSpace=wrap;html=1;" parent="1" vertex="1">
          <mxGeometry x="520" y="40" width="160" height="60" as="geometry" />
        </mxCell>
        <mxCell id="A1K1ccTUi93D_iNqFism-18" value="" style="endArrow=none;dashed=1;html=1;dashPattern=1 3;strokeWidth=2;rounded=0;entryX=0.5;entryY=1;entryDx=0;entryDy=0;" parent="1" source="A1K1ccTUi93D_iNqFism-107" target="A1K1ccTUi93D_iNqFism-17" edge="1">
          <mxGeometry width="50" height="50" relative="1" as="geometry">
            <mxPoint x="600" y="1400" as="sourcePoint" />
            <mxPoint x="610" y="370" as="targetPoint" />
          </mxGeometry>
        </mxCell>
        <mxCell id="A1K1ccTUi93D_iNqFism-20" value="" style="endArrow=classic;html=1;rounded=0;" parent="1" target="A1K1ccTUi93D_iNqFism-107" edge="1">
          <mxGeometry width="50" height="50" relative="1" as="geometry">
            <mxPoint x="600" y="340" as="sourcePoint" />
            <mxPoint x="600" y="400" as="targetPoint" />
            <Array as="points">
              <mxPoint x="680" y="340" />
              <mxPoint x="680" y="400" />
            </Array>
          </mxGeometry>
        </mxCell>
        <mxCell id="A1K1ccTUi93D_iNqFism-21" value="ladeVorhandeneReservierungen()" style="edgeLabel;html=1;align=center;verticalAlign=middle;resizable=0;points=[];" parent="A1K1ccTUi93D_iNqFism-20" vertex="1" connectable="0">
          <mxGeometry x="0.0182" y="-2" relative="1" as="geometry">
            <mxPoint x="12" as="offset" />
          </mxGeometry>
        </mxCell>
        <mxCell id="A1K1ccTUi93D_iNqFism-33" value="r129 : Reservierung" style="rounded=0;whiteSpace=wrap;html=1;" parent="1" vertex="1">
          <mxGeometry x="720" y="520" width="120" height="40" as="geometry" />
        </mxCell>
        <mxCell id="A1K1ccTUi93D_iNqFism-34" value="legtNeue&lt;div&gt;ReservierungenAn()&lt;/div&gt;" style="endArrow=open;endSize=12;dashed=1;html=1;rounded=0;entryX=0;entryY=0.5;entryDx=0;entryDy=0;entryPerimeter=0;" parent="1" target="A1K1ccTUi93D_iNqFism-33" edge="1">
          <mxGeometry width="160" relative="1" as="geometry">
            <mxPoint x="600" y="540" as="sourcePoint" />
            <mxPoint x="710" y="480" as="targetPoint" />
          </mxGeometry>
        </mxCell>
        <mxCell id="A1K1ccTUi93D_iNqFism-37" value="" style="endArrow=classic;html=1;rounded=0;" parent="1" target="A1K1ccTUi93D_iNqFism-107" edge="1">
          <mxGeometry width="50" height="50" relative="1" as="geometry">
            <mxPoint x="600" y="464" as="sourcePoint" />
            <mxPoint x="600" y="510" as="targetPoint" />
            <Array as="points">
              <mxPoint x="680" y="464" />
              <mxPoint x="680" y="510" />
            </Array>
          </mxGeometry>
        </mxCell>
        <mxCell id="A1K1ccTUi93D_iNqFism-38" value="prüftMaxReserviertePersonen()" style="edgeLabel;html=1;align=center;verticalAlign=middle;resizable=0;points=[];" parent="A1K1ccTUi93D_iNqFism-37" vertex="1" connectable="0">
          <mxGeometry x="-0.0097" y="-1" relative="1" as="geometry">
            <mxPoint x="11" as="offset" />
          </mxGeometry>
        </mxCell>
        <mxCell id="A1K1ccTUi93D_iNqFism-39" value="" style="endArrow=none;dashed=1;html=1;dashPattern=1 3;strokeWidth=2;rounded=0;entryX=0.15;entryY=0.95;entryDx=0;entryDy=0;entryPerimeter=0;" parent="1" source="A1K1ccTUi93D_iNqFism-109" target="A1K1ccTUi93D_iNqFism-33" edge="1">
          <mxGeometry width="50" height="50" relative="1" as="geometry">
            <mxPoint x="740" y="1400" as="sourcePoint" />
            <mxPoint x="740" y="560" as="targetPoint" />
          </mxGeometry>
        </mxCell>
        <mxCell id="A1K1ccTUi93D_iNqFism-42" value="t1224 : Ticket" style="rounded=0;whiteSpace=wrap;html=1;" parent="1" vertex="1">
          <mxGeometry x="800" y="870" width="80" height="40" as="geometry" />
        </mxCell>
        <mxCell id="A1K1ccTUi93D_iNqFism-43" value="erstelle&lt;div&gt;Ticket()&lt;/div&gt;" style="endArrow=open;endSize=12;dashed=1;html=1;rounded=0;entryX=0;entryY=0.5;entryDx=0;entryDy=0;" parent="1" target="A1K1ccTUi93D_iNqFism-42" edge="1">
          <mxGeometry width="160" relative="1" as="geometry">
            <mxPoint x="740" y="890" as="sourcePoint" />
            <mxPoint x="770" y="890.5" as="targetPoint" />
            <mxPoint as="offset" />
          </mxGeometry>
        </mxCell>
        <mxCell id="A1K1ccTUi93D_iNqFism-44" value="" style="endArrow=none;dashed=1;html=1;dashPattern=1 3;strokeWidth=2;rounded=0;entryX=0.25;entryY=1;entryDx=0;entryDy=0;" parent="1" source="A1K1ccTUi93D_iNqFism-116" target="A1K1ccTUi93D_iNqFism-42" edge="1">
          <mxGeometry width="50" height="50" relative="1" as="geometry">
            <mxPoint x="820" y="1480" as="sourcePoint" />
            <mxPoint x="790" y="640" as="targetPoint" />
          </mxGeometry>
        </mxCell>
        <mxCell id="A1K1ccTUi93D_iNqFism-67" value="v9 : Vorführung" style="rounded=0;whiteSpace=wrap;html=1;" parent="1" vertex="1">
          <mxGeometry x="1060" y="780" width="100" height="40" as="geometry" />
        </mxCell>
        <mxCell id="A1K1ccTUi93D_iNqFism-68" value="&lt;div&gt;lade&lt;/div&gt;&lt;div&gt;Vorführung()&lt;/div&gt;" style="endArrow=open;endSize=12;dashed=1;html=1;rounded=0;entryX=0;entryY=0.5;entryDx=0;entryDy=0;" parent="1" target="A1K1ccTUi93D_iNqFism-67" edge="1">
          <mxGeometry width="160" relative="1" as="geometry">
            <mxPoint x="960" y="799.5" as="sourcePoint" />
            <mxPoint x="1040" y="800" as="targetPoint" />
            <mxPoint as="offset" />
          </mxGeometry>
        </mxCell>
        <mxCell id="A1K1ccTUi93D_iNqFism-70" value="" style="endArrow=none;dashed=1;html=1;dashPattern=1 3;strokeWidth=2;rounded=0;entryX=0.2;entryY=1;entryDx=0;entryDy=0;entryPerimeter=0;" parent="1" source="A1K1ccTUi93D_iNqFism-118" target="A1K1ccTUi93D_iNqFism-67" edge="1">
          <mxGeometry width="50" height="50" relative="1" as="geometry">
            <mxPoint x="1080" y="1480" as="sourcePoint" />
            <mxPoint x="1080" y="770" as="targetPoint" />
          </mxGeometry>
        </mxCell>
        <mxCell id="A1K1ccTUi93D_iNqFism-79" value="" style="endArrow=classic;html=1;rounded=0;" parent="1" edge="1">
          <mxGeometry width="50" height="50" relative="1" as="geometry">
            <mxPoint x="825" y="1140" as="sourcePoint" />
            <mxPoint x="820" y="1190" as="targetPoint" />
            <Array as="points">
              <mxPoint x="925" y="1140" />
              <mxPoint x="925" y="1190" />
            </Array>
          </mxGeometry>
        </mxCell>
        <mxCell id="A1K1ccTUi93D_iNqFism-80" value="prüfeVerfügbarkeit()" style="edgeLabel;html=1;align=center;verticalAlign=middle;resizable=0;points=[];" parent="A1K1ccTUi93D_iNqFism-79" vertex="1" connectable="0">
          <mxGeometry x="-0.024" y="-3" relative="1" as="geometry">
            <mxPoint x="-27" as="offset" />
          </mxGeometry>
        </mxCell>
        <mxCell id="A1K1ccTUi93D_iNqFism-89" value="" style="endArrow=open;endFill=1;endSize=12;html=1;rounded=0;" parent="1" target="A1K1ccTUi93D_iNqFism-120" edge="1">
          <mxGeometry width="160" relative="1" as="geometry">
            <mxPoint x="730" y="1290" as="sourcePoint" />
            <mxPoint x="965" y="1290" as="targetPoint" />
          </mxGeometry>
        </mxCell>
        <mxCell id="A1K1ccTUi93D_iNqFism-90" value="übermitteltReservierungsDaten()" style="edgeLabel;html=1;align=center;verticalAlign=middle;resizable=0;points=[];" parent="A1K1ccTUi93D_iNqFism-89" vertex="1" connectable="0">
          <mxGeometry x="-0.1048" y="1" relative="1" as="geometry">
            <mxPoint x="2" y="1" as="offset" />
          </mxGeometry>
        </mxCell>
        <mxCell id="A1K1ccTUi93D_iNqFism-92" value="" style="endArrow=open;endFill=1;endSize=12;html=1;rounded=0;" parent="1" target="A1K1ccTUi93D_iNqFism-118" edge="1">
          <mxGeometry width="160" relative="1" as="geometry">
            <mxPoint x="960" y="1310" as="sourcePoint" />
            <mxPoint x="1085" y="1310" as="targetPoint" />
          </mxGeometry>
        </mxCell>
        <mxCell id="A1K1ccTUi93D_iNqFism-93" value="buchePlätze&lt;div&gt;VorübergehendAus()&lt;br&gt;&lt;/div&gt;" style="edgeLabel;html=1;align=center;verticalAlign=middle;resizable=0;points=[];" parent="A1K1ccTUi93D_iNqFism-92" vertex="1" connectable="0">
          <mxGeometry x="-0.1048" y="1" relative="1" as="geometry">
            <mxPoint x="2" y="1" as="offset" />
          </mxGeometry>
        </mxCell>
        <mxCell id="A1K1ccTUi93D_iNqFism-94" value="" style="html=1;verticalAlign=bottom;endArrow=open;dashed=1;endSize=8;curved=0;rounded=0;" parent="1" target="A1K1ccTUi93D_iNqFism-107" edge="1">
          <mxGeometry relative="1" as="geometry">
            <mxPoint x="730" y="1311" as="sourcePoint" />
            <mxPoint x="600" y="1311" as="targetPoint" />
          </mxGeometry>
        </mxCell>
        <mxCell id="A1K1ccTUi93D_iNqFism-95" value="aktualisiere&lt;div&gt;ReservierungsMenü()&lt;/div&gt;" style="edgeLabel;html=1;align=center;verticalAlign=middle;resizable=0;points=[];" parent="A1K1ccTUi93D_iNqFism-94" vertex="1" connectable="0">
          <mxGeometry x="0.1141" y="2" relative="1" as="geometry">
            <mxPoint x="15" as="offset" />
          </mxGeometry>
        </mxCell>
        <mxCell id="A1K1ccTUi93D_iNqFism-96" value="" style="html=1;verticalAlign=bottom;endArrow=open;dashed=1;endSize=8;curved=0;rounded=0;" parent="1" edge="1">
          <mxGeometry relative="1" as="geometry">
            <mxPoint x="600" y="1340" as="sourcePoint" />
            <mxPoint x="380" y="1340" as="targetPoint" />
          </mxGeometry>
        </mxCell>
        <mxCell id="A1K1ccTUi93D_iNqFism-97" value="" style="html=1;verticalAlign=bottom;endArrow=open;dashed=1;endSize=8;curved=0;rounded=0;" parent="1" target="A1K1ccTUi93D_iNqFism-101" edge="1">
          <mxGeometry relative="1" as="geometry">
            <mxPoint x="375" y="1360" as="sourcePoint" />
            <mxPoint x="130" y="1360" as="targetPoint" />
          </mxGeometry>
        </mxCell>
        <mxCell id="A1K1ccTUi93D_iNqFism-98" value="" style="endArrow=classic;html=1;rounded=0;" parent="1" target="A1K1ccTUi93D_iNqFism-104" edge="1">
          <mxGeometry width="50" height="50" relative="1" as="geometry">
            <mxPoint x="125" y="1390" as="sourcePoint" />
            <mxPoint x="375" y="1390" as="targetPoint" />
          </mxGeometry>
        </mxCell>
        <mxCell id="A1K1ccTUi93D_iNqFism-99" value="führtLogoutDurch()" style="edgeLabel;html=1;align=center;verticalAlign=middle;resizable=0;points=[];" parent="A1K1ccTUi93D_iNqFism-98" vertex="1" connectable="0">
          <mxGeometry x="0.232" y="-2" relative="1" as="geometry">
            <mxPoint x="-34" as="offset" />
          </mxGeometry>
        </mxCell>
        <mxCell id="A1K1ccTUi93D_iNqFism-100" value="logout Erfolgreich" style="html=1;verticalAlign=bottom;endArrow=open;dashed=1;endSize=8;curved=0;rounded=0;" parent="1" target="A1K1ccTUi93D_iNqFism-101" edge="1">
          <mxGeometry relative="1" as="geometry">
            <mxPoint x="375" y="1430" as="sourcePoint" />
            <mxPoint x="130" y="1430" as="targetPoint" />
          </mxGeometry>
        </mxCell>
        <mxCell id="A1K1ccTUi93D_iNqFism-102" value="" style="endArrow=classic;html=1;rounded=0;" parent="1" target="A1K1ccTUi93D_iNqFism-101" edge="1">
          <mxGeometry width="50" height="50" relative="1" as="geometry">
            <mxPoint x="120" y="140" as="sourcePoint" />
            <mxPoint x="370" y="140" as="targetPoint" />
          </mxGeometry>
        </mxCell>
        <mxCell id="A1K1ccTUi93D_iNqFism-103" value="öffneStartseite()" style="edgeLabel;html=1;align=center;verticalAlign=middle;resizable=0;points=[];" parent="A1K1ccTUi93D_iNqFism-102" vertex="1" connectable="0">
          <mxGeometry x="-0.125" y="-2" relative="1" as="geometry">
            <mxPoint x="98" as="offset" />
          </mxGeometry>
        </mxCell>
        <mxCell id="A1K1ccTUi93D_iNqFism-101" value="" style="html=1;points=[[0,0,0,0,5],[0,1,0,0,-5],[1,0,0,0,5],[1,1,0,0,-5]];perimeter=orthogonalPerimeter;outlineConnect=0;targetShapes=umlLifeline;portConstraint=eastwest;newEdgeStyle={&quot;curved&quot;:0,&quot;rounded&quot;:0};" parent="1" vertex="1">
          <mxGeometry x="115" y="120" width="10" height="1320" as="geometry" />
        </mxCell>
        <mxCell id="A1K1ccTUi93D_iNqFism-105" value="" style="html=1;verticalAlign=bottom;endArrow=open;dashed=1;endSize=8;curved=0;rounded=0;" parent="1" target="A1K1ccTUi93D_iNqFism-104" edge="1">
          <mxGeometry relative="1" as="geometry">
            <mxPoint x="370" y="170" as="sourcePoint" />
            <mxPoint x="125" y="170" as="targetPoint" />
          </mxGeometry>
        </mxCell>
        <mxCell id="A1K1ccTUi93D_iNqFism-106" value="" style="endArrow=none;dashed=1;html=1;dashPattern=1 3;strokeWidth=2;rounded=0;entryX=0.563;entryY=1;entryDx=0;entryDy=0;entryPerimeter=0;" parent="1" target="A1K1ccTUi93D_iNqFism-104" edge="1">
          <mxGeometry width="50" height="50" relative="1" as="geometry">
            <mxPoint x="370" y="1400" as="sourcePoint" />
            <mxPoint x="370" y="100" as="targetPoint" />
          </mxGeometry>
        </mxCell>
        <mxCell id="A1K1ccTUi93D_iNqFism-104" value="" style="html=1;points=[[0,0,0,0,5],[0,1,0,0,-5],[1,0,0,0,5],[1,1,0,0,-5]];perimeter=orthogonalPerimeter;outlineConnect=0;targetShapes=umlLifeline;portConstraint=eastwest;newEdgeStyle={&quot;curved&quot;:0,&quot;rounded&quot;:0};" parent="1" vertex="1">
          <mxGeometry x="370" y="120" width="10" height="1320" as="geometry" />
        </mxCell>
        <mxCell id="A1K1ccTUi93D_iNqFism-16" value="" style="endArrow=classic;html=1;rounded=0;" parent="1" edge="1">
          <mxGeometry width="50" height="50" relative="1" as="geometry">
            <mxPoint x="120" y="310" as="sourcePoint" />
            <mxPoint x="600" y="310" as="targetPoint" />
          </mxGeometry>
        </mxCell>
        <mxCell id="A1K1ccTUi93D_iNqFism-19" value="öffneReservierungsEinheit()" style="edgeLabel;html=1;align=center;verticalAlign=middle;resizable=0;points=[];" parent="A1K1ccTUi93D_iNqFism-16" vertex="1" connectable="0">
          <mxGeometry x="-0.1417" y="-1" relative="1" as="geometry">
            <mxPoint as="offset" />
          </mxGeometry>
        </mxCell>
        <mxCell id="A1K1ccTUi93D_iNqFism-26" value="zeigeReserierungsDashboardAn()" style="html=1;verticalAlign=bottom;endArrow=open;dashed=1;endSize=8;curved=0;rounded=0;" parent="1" target="A1K1ccTUi93D_iNqFism-101" edge="1">
          <mxGeometry y="-4" relative="1" as="geometry">
            <mxPoint x="600" y="414" as="sourcePoint" />
            <mxPoint x="120" y="414" as="targetPoint" />
            <mxPoint as="offset" />
          </mxGeometry>
        </mxCell>
        <mxCell id="A1K1ccTUi93D_iNqFism-27" value="" style="endArrow=classic;html=1;rounded=0;" parent="1" target="A1K1ccTUi93D_iNqFism-107" edge="1">
          <mxGeometry width="50" height="50" relative="1" as="geometry">
            <mxPoint x="120" y="450" as="sourcePoint" />
            <mxPoint x="600" y="450" as="targetPoint" />
          </mxGeometry>
        </mxCell>
        <mxCell id="A1K1ccTUi93D_iNqFism-28" value="neueReservierungHinzufügen()" style="edgeLabel;html=1;align=center;verticalAlign=middle;resizable=0;points=[];" parent="A1K1ccTUi93D_iNqFism-27" vertex="1" connectable="0">
          <mxGeometry x="-0.1208" relative="1" as="geometry">
            <mxPoint as="offset" />
          </mxGeometry>
        </mxCell>
        <mxCell id="A1K1ccTUi93D_iNqFism-108" value="" style="endArrow=none;dashed=1;html=1;dashPattern=1 3;strokeWidth=2;rounded=0;entryX=0.5;entryY=1;entryDx=0;entryDy=0;" parent="1" target="A1K1ccTUi93D_iNqFism-107" edge="1">
          <mxGeometry width="50" height="50" relative="1" as="geometry">
            <mxPoint x="600" y="1480" as="sourcePoint" />
            <mxPoint x="600" y="100" as="targetPoint" />
          </mxGeometry>
        </mxCell>
        <mxCell id="A1K1ccTUi93D_iNqFism-107" value="" style="html=1;points=[[0,0,0,0,5],[0,1,0,0,-5],[1,0,0,0,5],[1,1,0,0,-5]];perimeter=orthogonalPerimeter;outlineConnect=0;targetShapes=umlLifeline;portConstraint=eastwest;newEdgeStyle={&quot;curved&quot;:0,&quot;rounded&quot;:0};" parent="1" vertex="1">
          <mxGeometry x="595" y="330" width="10" height="1000" as="geometry" />
        </mxCell>
        <mxCell id="A1K1ccTUi93D_iNqFism-32" value="zeigeReservierungsFormularAn()" style="html=1;verticalAlign=bottom;endArrow=open;dashed=1;endSize=8;curved=0;rounded=0;" parent="1" target="A1K1ccTUi93D_iNqFism-101" edge="1">
          <mxGeometry relative="1" as="geometry">
            <mxPoint x="740" y="580" as="sourcePoint" />
            <mxPoint x="130" y="580" as="targetPoint" />
          </mxGeometry>
        </mxCell>
        <mxCell id="A1K1ccTUi93D_iNqFism-110" value="" style="endArrow=none;dashed=1;html=1;dashPattern=1 3;strokeWidth=2;rounded=0;entryX=0.15;entryY=0.95;entryDx=0;entryDy=0;entryPerimeter=0;" parent="1" target="A1K1ccTUi93D_iNqFism-109" edge="1">
          <mxGeometry width="50" height="50" relative="1" as="geometry">
            <mxPoint x="730" y="1480" as="sourcePoint" />
            <mxPoint x="738" y="558" as="targetPoint" />
          </mxGeometry>
        </mxCell>
        <mxCell id="A1K1ccTUi93D_iNqFism-109" value="" style="html=1;points=[[0,0,0,0,5],[0,1,0,0,-5],[1,0,0,0,5],[1,1,0,0,-5]];perimeter=orthogonalPerimeter;outlineConnect=0;targetShapes=umlLifeline;portConstraint=eastwest;newEdgeStyle={&quot;curved&quot;:0,&quot;rounded&quot;:0};" parent="1" vertex="1">
          <mxGeometry x="730" y="570" width="10" height="740" as="geometry" />
        </mxCell>
        <mxCell id="A1K1ccTUi93D_iNqFism-85" value="" style="html=1;verticalAlign=bottom;endArrow=open;dashed=1;endSize=8;curved=0;rounded=0;" parent="1" target="A1K1ccTUi93D_iNqFism-101" edge="1">
          <mxGeometry relative="1" as="geometry">
            <mxPoint x="730" y="1230" as="sourcePoint" />
            <mxPoint x="130" y="1230" as="targetPoint" />
          </mxGeometry>
        </mxCell>
        <mxCell id="A1K1ccTUi93D_iNqFism-114" value="" style="html=1;verticalAlign=bottom;endArrow=open;dashed=1;endSize=8;curved=0;rounded=0;" parent="1" edge="1">
          <mxGeometry relative="1" as="geometry">
            <mxPoint x="820" y="1210" as="sourcePoint" />
            <mxPoint x="740" y="1210" as="targetPoint" />
            <Array as="points">
              <mxPoint x="780" y="1210" />
            </Array>
          </mxGeometry>
        </mxCell>
        <mxCell id="A1K1ccTUi93D_iNqFism-115" value="speichere&lt;div&gt;Ticket()&lt;/div&gt;" style="edgeLabel;html=1;align=center;verticalAlign=middle;resizable=0;points=[];" parent="A1K1ccTUi93D_iNqFism-114" vertex="1" connectable="0">
          <mxGeometry x="-0.0444" y="-3" relative="1" as="geometry">
            <mxPoint x="-2" y="3" as="offset" />
          </mxGeometry>
        </mxCell>
        <mxCell id="A1K1ccTUi93D_iNqFism-86" value="" style="endArrow=classic;html=1;rounded=0;" parent="1" target="A1K1ccTUi93D_iNqFism-109" edge="1">
          <mxGeometry width="50" height="50" relative="1" as="geometry">
            <mxPoint x="125" y="1270" as="sourcePoint" />
            <mxPoint x="735" y="1270" as="targetPoint" />
          </mxGeometry>
        </mxCell>
        <mxCell id="A1K1ccTUi93D_iNqFism-87" value="drücktSpeichernButton()" style="edgeLabel;html=1;align=center;verticalAlign=middle;resizable=0;points=[];" parent="A1K1ccTUi93D_iNqFism-86" vertex="1" connectable="0">
          <mxGeometry x="0.1484" y="3" relative="1" as="geometry">
            <mxPoint as="offset" />
          </mxGeometry>
        </mxCell>
        <mxCell id="A1K1ccTUi93D_iNqFism-117" value="" style="endArrow=none;dashed=1;html=1;dashPattern=1 3;strokeWidth=2;rounded=0;entryX=0.25;entryY=1;entryDx=0;entryDy=0;" parent="1" target="A1K1ccTUi93D_iNqFism-116" edge="1">
          <mxGeometry width="50" height="50" relative="1" as="geometry">
            <mxPoint x="813" y="1480" as="sourcePoint" />
            <mxPoint x="820" y="910" as="targetPoint" />
          </mxGeometry>
        </mxCell>
        <mxCell id="A1K1ccTUi93D_iNqFism-116" value="" style="html=1;points=[[0,0,0,0,5],[0,1,0,0,-5],[1,0,0,0,5],[1,1,0,0,-5]];perimeter=orthogonalPerimeter;outlineConnect=0;targetShapes=umlLifeline;portConstraint=eastwest;newEdgeStyle={&quot;curved&quot;:0,&quot;rounded&quot;:0};" parent="1" vertex="1">
          <mxGeometry x="810" y="920" width="10" height="280" as="geometry" />
        </mxCell>
        <mxCell id="A1K1ccTUi93D_iNqFism-119" value="" style="endArrow=none;dashed=1;html=1;dashPattern=1 3;strokeWidth=2;rounded=0;entryX=0.2;entryY=1;entryDx=0;entryDy=0;entryPerimeter=0;" parent="1" target="A1K1ccTUi93D_iNqFism-118" edge="1">
          <mxGeometry width="50" height="50" relative="1" as="geometry">
            <mxPoint x="1080" y="1480" as="sourcePoint" />
            <mxPoint x="1080" y="820" as="targetPoint" />
          </mxGeometry>
        </mxCell>
        <mxCell id="A1K1ccTUi93D_iNqFism-118" value="" style="html=1;points=[[0,0,0,0,5],[0,1,0,0,-5],[1,0,0,0,5],[1,1,0,0,-5]];perimeter=orthogonalPerimeter;outlineConnect=0;targetShapes=umlLifeline;portConstraint=eastwest;newEdgeStyle={&quot;curved&quot;:0,&quot;rounded&quot;:0};" parent="1" vertex="1">
          <mxGeometry x="1080" y="830" width="10" height="610" as="geometry" />
        </mxCell>
        <mxCell id="A1K1ccTUi93D_iNqFism-121" value="" style="endArrow=none;dashed=1;html=1;dashPattern=1 3;strokeWidth=2;rounded=0;" parent="1" target="A1K1ccTUi93D_iNqFism-120" edge="1">
          <mxGeometry width="50" height="50" relative="1" as="geometry">
            <mxPoint x="960" y="1480" as="sourcePoint" />
            <mxPoint x="960" y="100" as="targetPoint" />
          </mxGeometry>
        </mxCell>
        <mxCell id="A1K1ccTUi93D_iNqFism-120" value="" style="html=1;points=[[0,0,0,0,5],[0,1,0,0,-5],[1,0,0,0,5],[1,1,0,0,-5]];perimeter=orthogonalPerimeter;outlineConnect=0;targetShapes=umlLifeline;portConstraint=eastwest;newEdgeStyle={&quot;curved&quot;:0,&quot;rounded&quot;:0};" parent="1" vertex="1">
          <mxGeometry x="955" y="120" width="10" height="1320" as="geometry" />
        </mxCell>
        <mxCell id="A1K1ccTUi93D_iNqFism-55" value="" style="endArrow=classic;html=1;rounded=0;" parent="1" target="A1K1ccTUi93D_iNqFism-120" edge="1">
          <mxGeometry width="50" height="50" relative="1" as="geometry">
            <mxPoint x="120" y="620" as="sourcePoint" />
            <mxPoint x="960" y="620" as="targetPoint" />
          </mxGeometry>
        </mxCell>
        <mxCell id="A1K1ccTUi93D_iNqFism-56" value="öffneVorführungsMenü()" style="edgeLabel;html=1;align=center;verticalAlign=middle;resizable=0;points=[];" parent="A1K1ccTUi93D_iNqFism-55" vertex="1" connectable="0">
          <mxGeometry x="-0.0929" y="-2" relative="1" as="geometry">
            <mxPoint x="-91" as="offset" />
          </mxGeometry>
        </mxCell>
        <mxCell id="A1K1ccTUi93D_iNqFism-58" value="" style="endArrow=classic;html=1;rounded=0;" parent="1" source="A1K1ccTUi93D_iNqFism-120" target="A1K1ccTUi93D_iNqFism-120" edge="1">
          <mxGeometry width="50" height="50" relative="1" as="geometry">
            <mxPoint x="970" y="640" as="sourcePoint" />
            <mxPoint x="970" y="680" as="targetPoint" />
            <Array as="points">
              <mxPoint x="1040" y="640" />
              <mxPoint x="1040" y="680" />
            </Array>
          </mxGeometry>
        </mxCell>
        <mxCell id="A1K1ccTUi93D_iNqFism-59" value="sucheVorführungen()" style="edgeLabel;html=1;align=center;verticalAlign=middle;resizable=0;points=[];" parent="A1K1ccTUi93D_iNqFism-58" vertex="1" connectable="0">
          <mxGeometry x="0.03" y="-4" relative="1" as="geometry">
            <mxPoint as="offset" />
          </mxGeometry>
        </mxCell>
        <mxCell id="A1K1ccTUi93D_iNqFism-72" value="aktualisiereReservierungsMenü()" style="html=1;verticalAlign=bottom;endArrow=open;dashed=1;endSize=8;curved=0;rounded=0;" parent="1" edge="1">
          <mxGeometry relative="1" as="geometry">
            <mxPoint x="1080" y="850" as="sourcePoint" />
            <mxPoint x="740" y="850" as="targetPoint" />
          </mxGeometry>
        </mxCell>
        <mxCell id="A1K1ccTUi93D_iNqFism-111" value="" style="endArrow=classic;html=1;rounded=0;" parent="1" edge="1">
          <mxGeometry width="50" height="50" relative="1" as="geometry">
            <mxPoint x="820" y="920" as="sourcePoint" />
            <mxPoint x="820" y="980" as="targetPoint" />
            <Array as="points">
              <mxPoint x="920" y="920" />
              <mxPoint x="920" y="980" />
            </Array>
          </mxGeometry>
        </mxCell>
        <mxCell id="A1K1ccTUi93D_iNqFism-112" value="fügtVorführungDatenHinzu()" style="edgeLabel;html=1;align=center;verticalAlign=middle;resizable=0;points=[];" parent="A1K1ccTUi93D_iNqFism-111" vertex="1" connectable="0">
          <mxGeometry x="0.0231" y="2" relative="1" as="geometry">
            <mxPoint x="-32" as="offset" />
          </mxGeometry>
        </mxCell>
        <mxCell id="A1K1ccTUi93D_iNqFism-122" value="" style="endArrow=classic;html=1;rounded=0;" parent="1" edge="1">
          <mxGeometry width="50" height="50" relative="1" as="geometry">
            <mxPoint x="125" y="740" as="sourcePoint" />
            <mxPoint x="955" y="740" as="targetPoint" />
          </mxGeometry>
        </mxCell>
        <mxCell id="A1K1ccTUi93D_iNqFism-124" value="wähleVorführung()" style="edgeLabel;html=1;align=center;verticalAlign=middle;resizable=0;points=[];" parent="A1K1ccTUi93D_iNqFism-122" vertex="1" connectable="0">
          <mxGeometry x="-0.0747" relative="1" as="geometry">
            <mxPoint as="offset" />
          </mxGeometry>
        </mxCell>
        <mxCell id="A1K1ccTUi93D_iNqFism-123" value="" style="html=1;verticalAlign=bottom;endArrow=open;dashed=1;endSize=8;curved=0;rounded=0;" parent="1" target="A1K1ccTUi93D_iNqFism-101" edge="1">
          <mxGeometry relative="1" as="geometry">
            <mxPoint x="960" y="700" as="sourcePoint" />
            <mxPoint x="880" y="700" as="targetPoint" />
          </mxGeometry>
        </mxCell>
        <mxCell id="A1K1ccTUi93D_iNqFism-125" value="" style="html=1;verticalAlign=bottom;endArrow=open;dashed=1;endSize=8;curved=0;rounded=0;" parent="1" edge="1">
          <mxGeometry relative="1" as="geometry">
            <mxPoint x="810" y="1000" as="sourcePoint" />
            <mxPoint x="125" y="1000" as="targetPoint" />
          </mxGeometry>
        </mxCell>
        <mxCell id="A1K1ccTUi93D_iNqFism-126" value="" style="endArrow=classic;html=1;rounded=0;" parent="1" target="A1K1ccTUi93D_iNqFism-116" edge="1">
          <mxGeometry width="50" height="50" relative="1" as="geometry">
            <mxPoint x="125" y="1040" as="sourcePoint" />
            <mxPoint x="730" y="1040" as="targetPoint" />
            <Array as="points">
              <mxPoint x="500" y="1040" />
            </Array>
          </mxGeometry>
        </mxCell>
        <mxCell id="A1K1ccTUi93D_iNqFism-127" value="fügePlatzDatenHinzu()" style="edgeLabel;html=1;align=center;verticalAlign=middle;resizable=0;points=[];" parent="A1K1ccTUi93D_iNqFism-126" vertex="1" connectable="0">
          <mxGeometry x="-0.1074" y="1" relative="1" as="geometry">
            <mxPoint x="19" as="offset" />
          </mxGeometry>
        </mxCell>
        <mxCell id="A1K1ccTUi93D_iNqFism-128" value="" style="html=1;verticalAlign=bottom;endArrow=open;dashed=1;endSize=8;curved=0;rounded=0;" parent="1" edge="1">
          <mxGeometry relative="1" as="geometry">
            <mxPoint x="810" y="1080" as="sourcePoint" />
            <mxPoint x="125" y="1080" as="targetPoint" />
          </mxGeometry>
        </mxCell>
        <mxCell id="A1K1ccTUi93D_iNqFism-129" value="" style="endArrow=classic;html=1;rounded=0;" parent="1" edge="1">
          <mxGeometry width="50" height="50" relative="1" as="geometry">
            <mxPoint x="125" y="1120" as="sourcePoint" />
            <mxPoint x="810" y="1120" as="targetPoint" />
            <Array as="points">
              <mxPoint x="500" y="1120" />
            </Array>
          </mxGeometry>
        </mxCell>
        <mxCell id="A1K1ccTUi93D_iNqFism-130" value="fügePersonenDatenHinzu()" style="edgeLabel;html=1;align=center;verticalAlign=middle;resizable=0;points=[];" parent="A1K1ccTUi93D_iNqFism-129" vertex="1" connectable="0">
          <mxGeometry x="-0.1074" y="1" relative="1" as="geometry">
            <mxPoint x="29" as="offset" />
          </mxGeometry>
        </mxCell>
      </root>
    </mxGraphModel>
  </diagram>
</mxfile>
